HIERARCHY
ROOT Hip
{
  OFFSET 0.0 0.0 0.0
  CHANNELS 6 Xposition Yposition Zposition Xrotation Yrotation Zrotation
  JOINT LowerSpine
  {
    OFFSET 0.0 0.061367 -0.03653
    CHANNELS 3 Xrotation Yrotation Zrotation
    JOINT MiddleSpine
    {
      OFFSET 0.0 0.056002 0.002633
      CHANNELS 3 Xrotation Yrotation Zrotation
      JOINT Chest
      {
        OFFSET 0.0 0.069296 -0.013882
        CHANNELS 3 Xrotation Yrotation Zrotation
        JOINT Neck
        {
          OFFSET 0.0 0.156156 -0.002923
          CHANNELS 3 Xrotation Yrotation Zrotation
          JOINT Head
          {
            OFFSET 0.0 0.088183 0.023986
            CHANNELS 3 Xrotation Yrotation Zrotation
            End Site
            {
              OFFSET 1e-06 0.123215 0.003678
            }
          }
        }
        JOINT LClavicle
        {
          OFFSET 0.014189 0.150698 0.046467
          CHANNELS 3 Xrotation Yrotation Zrotation
          JOINT LShoulder
          {
            OFFSET 0.082893 0.021616 -0.034976
            CHANNELS 3 Xrotation Yrotation Zrotation
            JOINT LForearm
            {
              OFFSET 0.195645 -0.000695 -0.001695
              CHANNELS 3 Xrotation Yrotation Zrotation
              JOINT LHand
              {
                OFFSET 0.163209 0.000474 -0.000977
                CHANNELS 3 Xrotation Yrotation Zrotation
                End Site
                {
                  OFFSET 0.0 0.006864 0.0
                }
              }
            }
          }
        }
        JOINT RClavicle
        {
          OFFSET -0.014189 0.150698 0.046467
          CHANNELS 3 Xrotation Yrotation Zrotation
          JOINT RShoulder
          {
            OFFSET -0.082908 0.021619 -0.034982
            CHANNELS 3 Xrotation Yrotation Zrotation
            JOINT RForearm
            {
              OFFSET -0.195645 -0.000695 -0.001695
              CHANNELS 3 Xrotation Yrotation Zrotation
              JOINT RHand
              {
                OFFSET -0.163209 0.000474 -0.000977
                CHANNELS 3 Xrotation Yrotation Zrotation
                End Site
                {
                  OFFSET 0.0 0.006864 0.0
                }
              }
            }
          }
        }
      }
    }
  }
  JOINT RThigh
  {
    OFFSET -0.072558 0.02774 -0.005953
    CHANNELS 3 Xrotation Yrotation Zrotation
    JOINT RShin
    {
      OFFSET -0.005253 -0.285537 0.0
      CHANNELS 3 Xrotation Yrotation Zrotation
      JOINT RFoot
      {
        OFFSET 0.0 -0.28038 0.0
        CHANNELS 3 Xrotation Yrotation Zrotation
        JOINT RToe
        {
          OFFSET 0.0 -0.030816 0.064441
          CHANNELS 3 Xrotation Yrotation Zrotation
          End Site
          {
            OFFSET 0.0 0.0 0.043231
          }
        }
      }
    }
  }
  JOINT LThigh
  {
    OFFSET 0.072557 0.027741 -0.005953
    CHANNELS 3 Xrotation Yrotation Zrotation
    JOINT LShin
    {
      OFFSET 0.005253 -0.285539 0.0
      CHANNELS 3 Xrotation Yrotation Zrotation
      JOINT LFoot
      {
        OFFSET 0.0 -0.28038 0.0
        CHANNELS 3 Xrotation Yrotation Zrotation
        JOINT LToe
        {
          OFFSET 0.0 -0.030816 0.064441
          CHANNELS 3 Xrotation Yrotation Zrotation
          End Site
          {
            OFFSET 0.0 0.0 0.043231
          }
        }
      }
    }
  }
}
MOTION
Frames: 13
Frame Time: 0.03333333333333333
-0.027958 0.563342 -0.056157 5.621196 -1.524519 -1.14564 1.448342 -0.036976 -0.611815 0.030586 1.452787 -0.055804 -3.308617 3.869506 -1.125443 -0.490889 0.371663 0.15043 0.089249 -0.186804 -0.043339 -0.832183 -2.108878 -6.312272 20.567924 -20.12715 -43.637154 11.696839 -39.274731 1.961265 0.209277 0.288437 -0.194552 -1.848008 0.964211 7.59101 13.472461 24.298994 46.554474 7.746791 33.161636 -3.288124 0.111033 -0.460393 -0.013477 -20.089275 -0.602744 -5.163176 17.977547 -3.028045 4.772303 -2.14103 1.421767 0.139468 0.103106 0.700947 0.142093 -11.841516 7.315633 11.284654 11.94522 7.988124 -7.521814 -2.605842 -0.338595 0.150762 0.117616 -0.233334 -0.097491 
-0.023002 0.565777 -0.0534 4.413862 -0.24232 -2.166376 1.375297 -0.203825 -0.138731 -0.938687 1.468873 0.549974 -4.088861 2.936515 0.712048 -0.002957 0.325863 -0.125449 0.078659 -0.303568 -0.086919 -0.960229 -3.037963 -6.925506 19.18478 -16.258118 -46.213127 10.165291 -37.92757 4.3081 0.167151 0.274768 -0.189022 -2.219481 1.001383 7.762963 14.014812 16.854427 47.291821 9.045696 38.042015 -5.564256 -0.138637 -0.33989 -0.036111 -16.596714 -3.331621 -5.506464 14.592146 -3.809947 4.723946 -0.944234 1.05023 -0.157424 -0.030599 0.543694 0.164604 -10.695292 6.973367 9.461404 9.702172 6.240608 -5.736662 -2.314433 -0.20518 0.616961 0.147357 -0.283938 -0.085465 
-0.023154 0.567849 -0.057036 2.837977 0.427656 -2.323974 1.279711 -0.266531 -0.286333 -0.842278 1.453552 0.556917 -3.547765 2.157606 1.226992 0.081206 0.248102 -0.181969 0.062664 -0.218133 -0.080661 -0.996592 -3.035135 -7.544383 18.003792 -14.764127 -47.466461 7.674858 -36.805676 4.007068 0.116668 0.220006 -0.149879 -2.036242 1.320546 7.490384 11.586718 11.846952 46.993809 5.866014 46.438599 -6.491086 -0.093193 -0.297089 -0.027359 -14.186429 -4.823752 -5.61194 11.077018 -4.110234 4.636292 -0.862737 1.361565 0.020768 0.017045 0.500975 0.137757 -8.570533 5.636181 8.117319 8.255012 5.26796 -4.439376 -2.784669 0.04502 0.764554 0.118671 -0.178025 -0.036101 
-0.020773 0.571419 -0.053434 2.095248 0.615753 -2.53183 1.102084 -0.250464 -0.298951 -0.638411 1.389357 0.633342 -3.090177 2.058158 1.734369 0.033099 0.211302 -0.234204 0.054151 -0.180609 -0.0691 -0.95072 -2.73258 -8.515618 17.050024 -14.64833 -49.054401 6.949597 -35.445873 3.282411 0.106431 0.194533 -0.145296 -1.74734 1.138044 7.340047 7.312823 8.422596 46.740807 1.029704 55.933514 -7.690131 -0.040652 -0.284334 -0.020185 -11.950756 -4.713453 -4.86799 8.563388 -3.742403 4.074572 -0.863964 1.537052 0.177835 0.064523 0.485841 0.124225 -5.854941 4.90288 6.915544 6.27452 4.516735 -3.166466 -3.051093 0.428396 0.936316 0.108955 -0.134308 -0.014756 
-0.020422 0.570584 -0.04662 1.906273 0.487808 -2.636634 0.902666 -0.205393 -0.295773 -0.495876 1.369583 0.707018 -2.491728 1.918943 2.325864 -0.022459 0.189617 -0.296773 0.048517 -0.151945 -0.059617 -0.885881 -2.322396 -9.391515 16.379423 -14.305272 -50.767746 6.299315 -34.365673 2.633187 0.095791 0.168535 -0.132361 -1.41406 0.885898 7.071471 2.066359 5.311544 45.848785 -3.806535 64.896355 -9.641744 -0.001795 -0.273436 -0.013554 -10.05926 -4.319402 -3.996795 6.587603 -3.587188 3.534025 -1.183067 1.635193 0.296161 0.088604 0.446069 0.113046 -4.511104 3.530235 6.019879 5.164281 3.479843 -1.845498 -3.23578 0.849409 1.074904 0.103507 -0.099752 -0.001547 
-0.017728 0.567301 -0.038169 2.251813 0.61698 -2.689137 0.672019 -0.140906 -0.249219 -0.340325 1.30476 0.756353 -2.132445 1.477865 2.628266 -0.103149 0.148401 -0.362035 0.042252 -0.114553 -0.050834 -0.821162 -1.874861 -10.364044 15.792082 -13.796078 -52.322952 5.559924 -32.517685 1.917814 0.083609 0.136215 -0.112319 -1.030767 0.662073 6.757319 -3.517483 2.905731 44.286274 -7.617708 75.142036 -12.931168 0.041359 -0.254768 -0.004824 -8.175173 -3.708057 -3.575661 4.505785 -3.234877 2.943412 -1.602339 1.604361 0.392603 0.104359 0.402984 0.10017 -3.647432 1.912135 5.259318 4.300764 2.649402 -0.67098 -3.514383 1.35762 1.211182 0.095255 -0.060792 0.014652 
-0.015729 0.564206 -0.028291 2.158945 0.59145 -2.611326 0.456562 -0.014328 -0.190076 -0.21148 1.197417 0.620227 -1.153571 1.080348 2.963825 -0.154362 0.076101 -0.405789 0.031122 -0.045322 -0.032412 -0.894403 -1.374451 -11.371365 15.283215 -13.390628 -53.87048 4.448899 -29.48645 0.872525 0.058286 0.091245 -0.066796 -0.622322 0.444667 6.476885 -9.284791 1.570036 42.105839 11.020418 86.317513 -37.277988 0.080584 -0.204805 0.004852 -6.000371 -3.043332 -3.542805 3.065137 -2.792196 2.492456 -1.957102 1.520305 0.503961 0.114975 0.316383 0.071613 -1.655378 0.608876 4.484736 2.933526 2.250754 0.386687 -3.89359 1.968783 1.389763 0.067643 -0.004377 0.031679 
-0.013255 0.563738 -0.018139 1.803193 0.0209 -2.655641 0.216754 0.086536 -0.129874 -0.139062 1.10051 0.5233 -0.358896 0.593848 3.052287 -0.215778 0.058191 -0.473711 0.021364 0.014593 -0.01453 -0.900849 -0.875542 -12.41768 15.331707 -13.496351 -55.015388 3.852242 -26.832497 0.109832 0.040558 0.063201 -0.033481 -0.268458 0.114521 6.024961 -14.124661 1.577488 39.937645 137.642166 83.364578 -168.332596 0.11874 -0.174526 0.011438 -4.053833 -2.38587 -3.541435 1.821077 -2.384442 2.058225 -2.067178 1.510506 0.637905 0.129143 0.252345 0.046234 0.714858 -0.57868 3.692269 1.473132 1.852737 1.245693 -4.232828 2.479606 1.578348 0.046267 0.031508 0.042877 
-0.011325 0.565523 -0.011338 1.496772 -0.448978 -2.670978 -0.091719 0.146244 0.018944 -0.096096 1.087869 0.441059 -0.022802 0.145875 2.881463 -0.354426 0.048731 -0.548398 0.013542 0.037036 -0.000122 -0.980227 -0.650356 -13.484224 15.998432 -13.304179 -55.81189 3.558596 -25.347954 -0.41645 0.030948 0.050257 -0.016973 0.004502 -0.137419 5.663205 -18.253115 2.476312 37.382404 143.611282 76.670242 -177.073883 0.121399 -0.152113 0.012413 -2.798704 -1.724808 -3.772046 0.879087 -1.992587 1.576 -2.157518 1.497856 0.722829 0.146242 0.21465 0.032352 2.292424 -1.241072 3.243371 0.553117 1.685482 1.590631 -4.538535 2.867293 1.740707 0.030719 0.050129 0.042772 
-0.007782 0.569401 -0.006862 1.204809 -0.888523 -2.778873 -0.343258 0.209368 0.165557 -0.06142 1.090027 0.403058 0.15091 -0.282085 2.733947 -0.491983 0.05563 -0.567356 0.008923 0.025797 0.010516 -1.116611 -0.542252 -14.477464 16.563923 -13.498085 -56.679482 3.402043 -23.682041 -0.868697 0.020389 0.038811 -0.002348 0.181633 -0.241717 5.43952 -21.872021 3.7671 34.867638 144.622452 73.79541 179.804871 0.078353 -0.118236 0.007368 -1.845513 -1.254383 -3.757463 0.396375 -1.609237 1.102774 -2.223139 1.452326 0.739512 0.145835 0.180074 0.025144 3.525928 -1.284023 2.842675 -0.116398 1.694016 1.879289 -4.909901 3.242114 1.926338 0.015957 0.057119 0.036944 
-0.004111 0.572338 -0.005624 0.999144 -0.961321 -2.85905 -0.574958 0.217255 0.290622 0.014072 1.078642 0.419841 0.074438 -0.635878 2.445961 -0.563901 0.064926 -0.521257 0.004048 0.005924 0.018256 -1.243356 -0.497056 -15.268837 17.045555 -14.279646 -57.309467 3.340988 -22.520271 -1.237483 0.005784 0.020963 0.014714 0.349237 -0.281664 5.165448 -25.435402 5.831439 32.735916 144.78949 72.30584 178.3862 0.035702 -0.079885 0.001976 -1.13261 -0.795561 -3.705009 0.015529 -1.203141 0.656067 -2.30137 1.370074 0.73085 0.135969 0.134278 0.015624 4.165878 -1.043815 2.522103 -0.320771 1.785882 2.031723 -5.175881 3.561625 2.076975 0.001125 0.06878 0.037596 
-0.000545 0.574754 -0.005293 0.756961 -1.000466 -2.900795 -0.750564 0.189836 0.381897 0.055029 1.066912 0.444777 -0.040028 -0.778781 2.269389 -0.650444 0.064034 -0.470747 0.000356 -0.010412 0.023921 -1.335255 -0.518239 -15.821619 17.592205 -14.969572 -57.767574 3.464057 -21.898798 -1.511981 -0.004705 0.009083 0.026022 0.45701 -0.269698 4.873312 -27.649736 7.640089 31.160625 144.948013 71.852493 177.573822 0.000444 -0.048111 -0.002334 -0.526165 -0.417118 -3.697978 -0.317074 -0.855861 0.321561 -2.350967 1.341793 0.72918 0.133415 0.098781 0.008043 4.646513 -0.741723 2.435691 -0.441646 1.867293 2.039825 -5.309289 3.793306 2.18716 -0.009518 0.077136 0.037159 
0.001726 0.576336 -0.005398 0.343676 -1.137422 -2.878225 -0.835454 0.170355 0.446572 0.105738 1.11446 0.458738 -0.050802 -0.663238 2.183953 -0.686782 0.075856 -0.421646 -0.000685 -0.037818 0.026971 -1.401004 -0.602537 -16.256178 17.876451 -15.611291 -58.267185 3.356173 -21.189137 -1.62924 -0.006919 0.009629 0.027824 0.52034 -0.222064 4.483559 -29.065266 9.408536 30.00584 145.203232 71.924698 176.899368 -0.040116 -0.020908 -0.006113 -0.173446 -0.19311 -3.567856 -0.306596 -0.606763 0.014458 -2.353079 1.336106 0.725599 0.126426 0.074197 0.010084 5.2259 -0.272875 2.440601 -0.595503 2.014179 2.033089 -5.395915 3.895851 2.264357 -0.010332 0.073469 0.031249 
